<svg width="15px" height="10px" viewBox="0 0 31 22" version="1.1" xmlns="http://www.w3.org/2000/svg" xmlns:xlink="http://www.w3.org/1999/xlink">
<!-- Generator: Sketch 49.3 (51167) - http://www.bohemiancoding.com/sketch -->
<desc>Created with Sketch.</desc>
<defs></defs>
<g id="Patient" stroke="none" stroke-width="1" fill="none" fill-rule="evenodd">
    <g id="requested-credentials" transform="translate(-608.000000, -637.000000)" fill="#FFFFFF" fill-rule="nonzero">
        <g id="Group-2" transform="translate(38.400000, 482.638681)">
            <g id="2" transform="translate(0.000000, 78.680660)">
                <g id="right-arrow" transform="translate(570.016478, 75.802099)">
                    <path d="M20.4175666,0.966236882 C20.0044972,0.540209895 19.3170111,0.540209895 18.8894987,0.966236882 C18.4764294,1.37787106 18.4764294,2.06296852 18.8894987,2.47364318 L26.6376788,10.1949025 L1.06974376,10.1949025 C0.47372991,10.1958621 0,10.667946 0,11.2618891 C0,11.8558321 0.47372991,12.3432684 1.06974376,12.3432684 L26.6376788,12.3432684 L18.8894987,20.0501349 C18.4764294,20.4761619 18.4764294,21.1622189 18.8894987,21.5728936 C19.3170111,21.9989205 20.0054601,21.9989205 20.4175666,21.5728936 L30.0000057,12.0237481 C30.4275181,11.6121139 30.4275181,10.9270165 30.0000057,10.5163418 L20.4175666,0.966236882 Z" id="Shape"></path>
                </g>
            </g>
        </g>
    </g>
</g>
</svg>